# xmcd
#
# Track frame offsets:
#	150
#	11745
#	21810
#	32950
#	42255
#	60115
#	70277
#	85057
#	97642
#	106237
#	115437
#	127382
#	137005
#	150582
#	161197
#	171120
#
# Disc length: 2403
#
# Revision: 2
# Processed by: cddbd v1.5.1PL0 Copyright (c) Steve Scherf et al.
# Submitted via: CDex 1.40Beta9
# Normalized: r0:DSETVAR1,TDELIM( - );r1:TSWAP
#
DISCID=ce096110
DTITLE=Various Artist - Chicken Fried Country - Disc 1
DYEAR=1900
DGENRE=Country
TTITLE0=Loretta Lynn  Conway Twitty - You're the Reason our Kids are Ugly
TTITLE1=Johnny Cash - Flushed from the Bathroom of Your Heart
TTITLE2=Little Jimmy Dickens - May the Bird of Paradise Fly Up Your Nose
TTITLE3=Tammy Wynette - Your Good Girl's Gonna Go Bad
TTITLE4=David Frizzell - I'm Gonna Hire a Wino to Decorate Our Home
TTITLE5=The Statler Brothers - You Can't Have Your Kate (and Edith, Too)
TTITLE6=Jerry Reed - She Got the Goldmine (I Got the Shaft)
TTITLE7=Ruby Wright - Billy Broke My Heart at Walgreen's
TTITLE8=Porter Wagoner and Dolly Parton - Why Don't You Haul Off and Love Me?
TTITLE9=Norma Jean - I Wouldn't Buy a Used Car from Him
TTITLE10=Loretta Lynn - One's On The Way
TTITLE11=George Jones and Melba Montgomery - Feudin' and Fightin'
TTITLE12=Homer and Jethro - I Got Tears in My Ears From Lying on my Back Crying Over You
TTITLE13=Merle Travis - Divorce Me C.O.D.
TTITLE14=Jean Shepard - Second Fiddle (To an Old Guitar)
TTITLE15=Roy Drusky - Peel me a Nanner
EXTD=ID3G: 2
EXTT0=
EXTT1=
EXTT2=
EXTT3=
EXTT4=
EXTT5=
EXTT6=
EXTT7=
EXTT8=
EXTT9=
EXTT10=
EXTT11=
EXTT12=
EXTT13=
EXTT14=
EXTT15=
PLAYORDER=
